<svg xmlns="http://www.w3.org/2000/svg" xmlns:xlink="http://www.w3.org/1999/xlink" width="500" zoomAndPan="magnify" viewBox="0 0 375 209.999996" height="280" preserveAspectRatio="xMidYMid meet" version="1.0"><defs><g/><clipPath id="9749a0d8c9"><path d="M 88 14 L 198 14 L 198 93.238281 L 88 93.238281 Z M 88 14 " clip-rule="nonzero"/></clipPath><clipPath id="e66a092687"><path d="M 176 4.101562 L 374 4.101562 L 374 92 L 176 92 Z M 176 4.101562 " clip-rule="nonzero"/></clipPath><clipPath id="e478dfeb47"><path d="M 339 183.003906 L 340.136719 183.003906 L 340.136719 183.472656 L 339 183.472656 Z M 339 183.003906 " clip-rule="nonzero"/></clipPath><clipPath id="62b2ebb825"><path d="M 302 183.003906 L 303.589844 183.003906 L 303.589844 183.472656 L 302 183.472656 Z M 302 183.003906 " clip-rule="nonzero"/></clipPath><clipPath id="7435ca3a10"><path d="M 296.167969 183.003906 L 297.308594 183.003906 L 297.308594 183.472656 L 296.167969 183.472656 Z M 296.167969 183.003906 " clip-rule="nonzero"/></clipPath><clipPath id="785c201d21"><path d="M 298 183.003906 L 299 183.003906 L 299 183.472656 L 298 183.472656 Z M 298 183.003906 " clip-rule="nonzero"/></clipPath><clipPath id="08eaf7c759"><path d="M 321 179.9375 L 323 179.9375 L 323 181 L 321 181 Z M 321 179.9375 " clip-rule="nonzero"/></clipPath><clipPath id="449ea83c4b"><path d="M 306 179.9375 L 313 179.9375 L 313 181 L 306 181 Z M 306 179.9375 " clip-rule="nonzero"/></clipPath><clipPath id="6ea57ed171"><path d="M 346 179.9375 L 347 179.9375 L 347 181 L 346 181 Z M 346 179.9375 " clip-rule="nonzero"/></clipPath><clipPath id="631c09ec7b"><path d="M 322 179.9375 L 323 179.9375 L 323 181 L 322 181 Z M 322 179.9375 " clip-rule="nonzero"/></clipPath><clipPath id="b698503890"><path d="M 104.859375 183.003906 L 106 183.003906 L 106 183.472656 L 104.859375 183.472656 Z M 104.859375 183.003906 " clip-rule="nonzero"/></clipPath><clipPath id="28867b7a91"><path d="M 94.011719 179.992188 L 367.722656 179.992188 L 367.722656 183.472656 L 94.011719 183.472656 Z M 94.011719 179.992188 " clip-rule="nonzero"/></clipPath><clipPath id="4adced3c98"><path d="M 318 179.9375 L 321 179.9375 L 321 181 L 318 181 Z M 318 179.9375 " clip-rule="nonzero"/></clipPath><clipPath id="d6b0f668e5"><path d="M 323 179.9375 L 356 179.9375 L 356 181 L 323 181 Z M 323 179.9375 " clip-rule="nonzero"/></clipPath><clipPath id="fda5fc542c"><path d="M 312 179.9375 L 319 179.9375 L 319 181 L 312 181 Z M 312 179.9375 " clip-rule="nonzero"/></clipPath></defs><g fill="#000000" fill-opacity="1"><g transform="translate(126.216452, 168.756274)"><g><path d="M 12.1875 -18.59375 C 11.0625 -15.851562 10.5 -12.796875 10.5 -9.421875 C 10.5 -7.160156 11 -5.363281 12 -4.03125 C 13.007812 -2.707031 14.441406 -2.046875 16.296875 -2.046875 C 23.617188 -2.046875 30.257812 -8.925781 36.21875 -22.6875 C 36.78125 -23.976562 37.460938 -24.546875 38.265625 -24.390625 C 38.585938 -24.304688 38.75 -24.101562 38.75 -23.78125 C 38.75 -23.457031 37.84375 -21.34375 36.03125 -17.4375 C 34.21875 -13.539062 32.390625 -10.382812 30.546875 -7.96875 C 26.441406 -2.332031 21.367188 0.484375 15.328125 0.484375 C 12.109375 0.484375 9.375 -0.5625 7.125 -2.65625 C 4.875 -4.75 3.75 -7.601562 3.75 -11.21875 C 3.75 -14.84375 4.613281 -18.6875 6.34375 -22.75 C 8.070312 -26.820312 10.421875 -30.609375 13.390625 -34.109375 C 16.367188 -37.609375 19.789062 -40.160156 23.65625 -41.765625 C 25.507812 -42.566406 27.28125 -42.96875 28.96875 -42.96875 C 30.65625 -42.96875 32.226562 -42.488281 33.6875 -41.53125 C 35.050781 -40.40625 35.734375 -39.15625 35.734375 -37.78125 C 35.734375 -32.957031 32.835938 -28.332031 27.046875 -23.90625 C 25.273438 -22.53125 22.78125 -21.300781 19.5625 -20.21875 C 16.34375 -19.132812 13.882812 -18.59375 12.1875 -18.59375 Z M 32.46875 -37.90625 C 32.46875 -39.507812 31.828125 -40.3125 30.546875 -40.3125 C 28.285156 -40.3125 24.863281 -37.535156 20.28125 -31.984375 C 17.539062 -28.609375 15.125 -24.828125 13.03125 -20.640625 C 14.40625 -20.640625 16.398438 -21.125 19.015625 -22.09375 C 21.628906 -23.0625 23.898438 -24.347656 25.828125 -25.953125 C 30.253906 -29.734375 32.46875 -33.71875 32.46875 -37.90625 Z M 32.46875 -37.90625 "/></g></g></g><g fill="#000000" fill-opacity="1"><g transform="translate(155.913325, 168.756274)"><g><path d="M 43.578125 -32.71875 C 42.128906 -31.269531 40.078125 -27.988281 37.421875 -22.875 C 34.765625 -17.757812 33.175781 -13.9375 32.65625 -11.40625 C 32.132812 -8.875 31.875 -6.820312 31.875 -5.25 C 31.875 -3.675781 32.476562 -2.890625 33.6875 -2.890625 C 35.207031 -2.890625 37.097656 -4.300781 39.359375 -7.125 C 42.648438 -11.226562 45.90625 -16.578125 49.125 -23.171875 C 49.445312 -23.898438 49.8125 -24.304688 50.21875 -24.390625 C 50.863281 -24.628906 51.1875 -24.382812 51.1875 -23.65625 C 51.1875 -23.257812 51.066406 -22.78125 50.828125 -22.21875 C 43.421875 -7.25 37.179688 0.234375 32.109375 0.234375 C 29.773438 0.234375 27.882812 -0.890625 26.4375 -3.140625 C 25.707031 -4.347656 25.34375 -5.957031 25.34375 -7.96875 C 25.34375 -9.976562 25.75 -12.429688 26.5625 -15.328125 C 20.125 -4.953125 14.570312 0.234375 9.90625 0.234375 C 8.613281 0.234375 7.441406 -0.164062 6.390625 -0.96875 C 3.984375 -2.65625 2.78125 -5.550781 2.78125 -9.65625 C 2.78125 -17.539062 6.195312 -25.550781 13.03125 -33.6875 C 16.894531 -38.1875 21.644531 -41.125 27.28125 -42.5 C 28.8125 -42.894531 30.257812 -43.09375 31.625 -43.09375 C 35.332031 -43.09375 38.472656 -41.804688 41.046875 -39.234375 C 41.847656 -38.347656 42.085938 -37.5 41.765625 -36.6875 C 41.441406 -35.882812 40.757812 -35.566406 39.71875 -35.734375 C 38.832031 -38.628906 36.898438 -40.078125 33.921875 -40.078125 C 30.460938 -40.078125 26.195312 -37.34375 21.125 -31.875 C 18.226562 -28.65625 15.53125 -24.867188 13.03125 -20.515625 C 9.894531 -15.285156 8.328125 -11.101562 8.328125 -7.96875 C 8.328125 -4.832031 9.332031 -3.265625 11.34375 -3.265625 C 16.175781 -3.265625 22.492188 -10.664062 30.296875 -25.46875 C 31.828125 -28.445312 33.113281 -30.476562 34.15625 -31.5625 C 35.207031 -32.65625 36.535156 -33.203125 38.140625 -33.203125 C 38.460938 -33.203125 39.285156 -33.078125 40.609375 -32.828125 C 41.941406 -32.585938 42.929688 -32.550781 43.578125 -32.71875 Z M 43.578125 -32.71875 "/></g></g></g><g fill="#000000" fill-opacity="1"><g transform="translate(198.164973, 168.756274)"><g><path d="M 13.515625 -23.296875 C 13.441406 -22.972656 13.082031 -21.863281 12.4375 -19.96875 C 11.789062 -18.082031 11.242188 -16.273438 10.796875 -14.546875 C 10.359375 -12.816406 10.140625 -11.085938 10.140625 -9.359375 C 10.140625 -7.628906 10.539062 -6.019531 11.34375 -4.53125 C 12.15625 -3.039062 13.441406 -2.296875 15.203125 -2.296875 C 18.109375 -2.296875 20.925781 -4.242188 23.65625 -8.140625 C 26.394531 -12.046875 29.296875 -17.019531 32.359375 -23.0625 C 32.992188 -24.1875 33.59375 -24.628906 34.15625 -24.390625 C 34.5625 -24.066406 34.644531 -23.640625 34.40625 -23.109375 C 34.164062 -22.585938 33.660156 -21.460938 32.890625 -19.734375 C 32.128906 -18.003906 31.566406 -16.796875 31.203125 -16.109375 C 30.835938 -15.429688 30.191406 -14.226562 29.265625 -12.5 C 28.347656 -10.769531 27.546875 -9.476562 26.859375 -8.625 C 26.171875 -7.78125 25.242188 -6.691406 24.078125 -5.359375 C 22.910156 -4.035156 21.804688 -3.054688 20.765625 -2.421875 C 17.941406 -0.648438 15.28125 0.234375 12.78125 0.234375 C 10.289062 0.234375 8.363281 -0.304688 7 -1.390625 C 5.632812 -2.472656 4.8125 -3.640625 4.53125 -4.890625 C 4.25 -6.140625 4.109375 -7.242188 4.109375 -8.203125 C 4.109375 -9.171875 4.144531 -10.421875 4.21875 -11.953125 C 4.46875 -14.523438 4.972656 -17.019531 5.734375 -19.4375 C 6.492188 -21.851562 6.914062 -23.222656 7 -23.546875 C 8.851562 -30.222656 11.488281 -37.503906 14.90625 -45.390625 C 18.332031 -53.273438 21.226562 -59.207031 23.59375 -63.1875 C 25.96875 -67.175781 27.84375 -69.894531 29.21875 -71.34375 C 31.945312 -74.238281 34.640625 -75.6875 37.296875 -75.6875 C 39.148438 -75.6875 40.398438 -74.359375 41.046875 -71.703125 C 41.128906 -71.222656 41.171875 -70.617188 41.171875 -69.890625 C 41.171875 -67.160156 40.203125 -63.703125 38.265625 -59.515625 C 31.347656 -44.140625 23.097656 -32.066406 13.515625 -23.296875 Z M 14.484375 -27.15625 C 18.585938 -31.34375 22.648438 -36.613281 26.671875 -42.96875 C 30.703125 -49.332031 33.660156 -54.742188 35.546875 -59.203125 C 37.441406 -63.671875 38.390625 -66.707031 38.390625 -68.3125 C 38.390625 -69.925781 38.109375 -70.734375 37.546875 -70.734375 C 36.742188 -70.734375 35.210938 -69.144531 32.953125 -65.96875 C 30.703125 -62.789062 27.664062 -57.078125 23.84375 -48.828125 C 20.019531 -40.578125 16.898438 -33.351562 14.484375 -27.15625 Z M 14.484375 -27.15625 "/></g></g></g><g clip-path="url(#9749a0d8c9)"><path fill="#820808" d="M 151.632812 14.851562 L 169.75 21.175781 L 170.011719 41.105469 L 172.503906 40.027344 L 172.546875 30.527344 L 184.214844 31.492188 L 197.292969 54.382812 L 169.730469 88.464844 L 133.984375 37.480469 L 96.644531 93.28125 L 88.304688 93.28125 L 135.019531 27.421875 L 152.058594 28.828125 L 151.632812 14.851562 " fill-opacity="1" fill-rule="evenodd"/></g><g clip-path="url(#e66a092687)"><path fill="#820808" d="M 279.058594 4.128906 L 251.957031 11.160156 L 251.566406 33.320312 L 247.839844 32.121094 L 247.777344 21.554688 L 230.320312 22.628906 L 176.78125 90.886719 L 244.882812 91.53125 L 305.453125 29.289062 L 361.308594 91.335938 L 373.78125 91.335938 L 303.90625 18.101562 L 278.417969 19.671875 L 279.058594 4.128906 " fill-opacity="1" fill-rule="evenodd"/></g><g clip-path="url(#e478dfeb47)"><path fill="#820808" d="M 339.5625 183.472656 L 339.917969 183.472656 C 339.925781 183.460938 339.972656 183.445312 340.027344 183.433594 C 339.753906 183.398438 339.722656 183.441406 339.5625 183.472656 " fill-opacity="1" fill-rule="evenodd"/></g><g clip-path="url(#62b2ebb825)"><path fill="#820808" d="M 302.183594 183.472656 L 303.269531 183.472656 C 303.277344 183.472656 303.28125 183.472656 303.285156 183.46875 C 302.964844 183.441406 302.625 183.5 302.3125 183.441406 C 302.25 183.453125 302.207031 183.460938 302.183594 183.472656 " fill-opacity="1" fill-rule="evenodd"/></g><g clip-path="url(#7435ca3a10)"><path fill="#820808" d="M 296.460938 183.472656 L 297.027344 183.472656 C 296.808594 183.453125 296.609375 183.449219 296.460938 183.472656 " fill-opacity="1" fill-rule="evenodd"/></g><g clip-path="url(#785c201d21)"><path fill="#820808" d="M 298.265625 183.472656 L 298.664062 183.472656 C 298.554688 183.46875 298.445312 183.464844 298.292969 183.457031 C 298.277344 183.460938 298.273438 183.464844 298.265625 183.472656 " fill-opacity="1" fill-rule="evenodd"/></g><g clip-path="url(#08eaf7c759)"><path fill="#820808" d="M 322.195312 179.992188 L 321.632812 179.992188 C 321.664062 180.003906 321.679688 180.023438 321.644531 180.050781 C 321.820312 180.050781 322.007812 180.019531 322.195312 179.992188 " fill-opacity="1" fill-rule="evenodd"/></g><g clip-path="url(#449ea83c4b)"><path fill="#820808" d="M 307.910156 180.0625 C 309.0625 179.988281 310.933594 180.082031 312.359375 180.105469 C 312.667969 180.070312 312.386719 180.027344 312.566406 179.992188 L 309.375 179.992188 C 309.367188 179.996094 309.359375 180 309.351562 180 C 309.332031 179.996094 309.3125 179.996094 309.292969 179.992188 L 306.617188 179.992188 C 307.046875 180.003906 307.480469 180.027344 307.910156 180.0625 " fill-opacity="1" fill-rule="evenodd"/></g><g clip-path="url(#6ea57ed171)"><path fill="#820808" d="M 346.265625 180.003906 C 346.273438 180 346.285156 179.996094 346.296875 179.992188 L 346.191406 179.992188 C 346.214844 180 346.238281 179.996094 346.265625 180.003906 " fill-opacity="1" fill-rule="evenodd"/></g><g clip-path="url(#631c09ec7b)"><path fill="#820808" d="M 322.441406 180.078125 C 322.71875 180.128906 322.976562 180.042969 322.90625 179.992188 L 322.863281 179.992188 C 322.835938 180.023438 322.511719 180.046875 322.441406 180.078125 " fill-opacity="1" fill-rule="evenodd"/></g><g clip-path="url(#b698503890)"><path fill="#820808" d="M 105.722656 183.363281 C 105.417969 183.363281 104.8125 183.394531 104.878906 183.472656 L 105.136719 183.472656 C 105.335938 183.4375 105.59375 183.402344 105.722656 183.363281 " fill-opacity="1" fill-rule="evenodd"/></g><g clip-path="url(#28867b7a91)"><path fill="#820808" d="M 364.347656 182.371094 C 364.53125 182.398438 364.453125 182.34375 364.628906 182.316406 C 364.871094 182.441406 365.179688 182.261719 365.417969 182.382812 C 365.09375 182.480469 364.339844 182.4375 364.347656 182.371094 Z M 351.914062 181.78125 C 352.15625 181.773438 352.40625 181.714844 352.628906 181.785156 C 352.222656 181.878906 351.964844 181.785156 351.914062 181.78125 Z M 341.09375 182.304688 C 341.390625 182.3125 341.703125 182.25 341.984375 182.3125 C 341.730469 182.363281 341.023438 182.398438 341.09375 182.304688 Z M 339.777344 181.058594 C 339.820312 180.984375 340.386719 180.992188 340.667969 181.066406 C 340.355469 181.140625 340.066406 181.09375 339.777344 181.058594 Z M 340.472656 183.0625 C 340.394531 183.050781 339.910156 183.0625 340.105469 183.097656 C 340.410156 183.078125 340.703125 183.09375 340.988281 183.144531 C 340.734375 183.207031 340.511719 183.15625 340.285156 183.097656 C 339.996094 183.152344 339.488281 183.117188 339.453125 183.222656 C 338.894531 183.132812 338.160156 183.304688 337.871094 183.128906 C 337.800781 183.242188 337.1875 183.234375 336.878906 183.175781 C 337.742188 183.160156 337.617188 183.027344 338.449219 182.949219 C 338.761719 183.105469 338.773438 182.933594 338.953125 183.066406 C 339.410156 183.042969 340.339844 182.96875 340.472656 183.0625 Z M 341.632812 183.058594 C 341.769531 183.144531 341.117188 183.140625 341.421875 183.203125 C 341.234375 183.234375 341.054688 183.25 340.878906 183.234375 C 341.289062 183.179688 341.0625 182.996094 341.632812 183.058594 Z M 335.269531 183.199219 C 335.128906 183.164062 334.988281 183.132812 334.847656 183.097656 C 334.488281 183.105469 334.109375 183.210938 333.769531 183.125 C 333.960938 183.007812 334.78125 182.996094 335.21875 183.027344 C 335.136719 183 335.269531 182.996094 335.40625 182.992188 C 335.113281 182.984375 334.832031 182.902344 334.535156 182.910156 C 334.0625 183.011719 333.601562 183.085938 333.179688 182.988281 C 333.894531 182.996094 333.722656 182.914062 334.007812 182.867188 C 334 182.960938 334.355469 182.90625 334.550781 182.835938 C 334.785156 182.84375 334.875 182.863281 334.890625 182.914062 C 335.535156 182.828125 336.125 182.96875 336.769531 182.875 C 337.046875 182.925781 336.707031 183.039062 337.203125 182.9375 C 337.5 182.992188 337.480469 183.144531 336.992188 183.082031 C 337.09375 183.058594 337.183594 183.035156 337.007812 183.007812 C 336.898438 183.21875 335.871094 183.144531 335.269531 183.199219 Z M 333.363281 183.347656 C 333.632812 183.359375 334.367188 183.339844 334.328125 183.410156 C 334.054688 183.410156 333.316406 183.4375 333.363281 183.347656 Z M 332.789062 180.816406 C 333.128906 180.761719 333.445312 180.796875 333.765625 180.847656 C 333.417969 180.921875 333.113281 180.839844 332.789062 180.816406 Z M 331.734375 183.050781 C 331.863281 183.027344 331.988281 183.003906 332.113281 182.980469 C 332.328125 183.058594 332.566406 183.0625 332.824219 182.984375 C 332.90625 183.003906 332.992188 183.023438 333.074219 183.042969 C 332.617188 183.105469 332.179688 183.0625 331.734375 183.050781 Z M 338.253906 181.097656 C 337.910156 181.046875 337.535156 181.117188 337.199219 181.011719 C 337.515625 180.96875 338.265625 181.007812 338.253906 181.097656 Z M 330.246094 182.9375 C 330.558594 182.886719 330.851562 182.90625 331.128906 182.984375 C 330.820312 183.027344 330.539062 182.960938 330.246094 182.9375 Z M 330.042969 183.050781 C 329.902344 183.015625 329.761719 182.984375 329.621094 182.953125 C 329 183.035156 328.867188 182.957031 328.179688 183.011719 C 328.363281 182.976562 328.066406 182.9375 328.382812 182.902344 C 328.722656 182.980469 329.085938 182.941406 329.449219 182.914062 C 329.320312 182.851562 329.300781 182.785156 329.671875 182.730469 C 329.933594 182.757812 330.195312 182.765625 330.449219 182.832031 C 330.171875 182.890625 329.914062 182.839844 329.628906 182.914062 C 329.761719 182.992188 330.449219 182.957031 330.492188 183.035156 C 330.34375 183.019531 330.199219 183.019531 330.042969 183.050781 Z M 327.222656 182.910156 C 327.597656 182.957031 327.574219 182.835938 328.027344 182.898438 C 327.796875 182.972656 327.117188 183.011719 327.222656 182.910156 Z M 331.003906 180.839844 C 330.976562 180.914062 330.457031 180.929688 330.1875 180.886719 C 330.21875 180.792969 330.726562 180.820312 331.003906 180.839844 Z M 325.496094 180.746094 C 325.234375 180.722656 324.949219 180.792969 324.699219 180.71875 C 324.9375 180.589844 325.855469 180.769531 325.496094 180.746094 Z M 325.265625 182.890625 C 324.847656 182.898438 324.4375 182.863281 324.03125 182.839844 C 324.421875 182.765625 325.488281 182.75 325.265625 182.890625 Z M 323.132812 182.867188 C 323.289062 182.792969 323.589844 182.773438 323.945312 182.820312 C 323.667969 182.855469 323.398438 182.855469 323.132812 182.867188 Z M 322.050781 183.289062 C 322.335938 183.351562 322.660156 183.226562 322.941406 183.296875 C 322.683594 183.355469 321.976562 183.382812 322.050781 183.289062 Z M 321.878906 182.890625 C 321.71875 182.925781 321.570312 182.921875 321.425781 182.90625 C 321.738281 182.851562 322.039062 182.835938 322.324219 182.878906 C 322.171875 182.902344 322.011719 182.949219 321.867188 182.929688 C 321.921875 182.917969 321.964844 182.90625 321.878906 182.890625 Z M 320.277344 180.5625 C 320.761719 180.515625 321.21875 180.601562 321.703125 180.574219 C 321.511719 180.695312 320.714844 180.609375 320.277344 180.5625 Z M 322.183594 182.726562 C 322.351562 182.765625 322.542969 182.703125 322.707031 182.769531 C 322.613281 182.789062 322.523438 182.804688 322.425781 182.824219 C 322.203125 182.777344 321.984375 182.796875 322.183594 182.726562 Z M 316.191406 183.1875 C 317 183.191406 317.363281 183.199219 318.050781 183.226562 C 317.417969 183.285156 316.796875 183.257812 316.191406 183.1875 Z M 315.164062 182.601562 C 314.769531 182.539062 315.289062 182.441406 315.542969 182.53125 C 315.28125 182.578125 315.496094 182.597656 315.164062 182.601562 Z M 312.257812 183.222656 C 311.929688 183.164062 311.804688 183.109375 312.207031 183.054688 C 312.480469 183.074219 312.550781 183.171875 312.988281 183.15625 C 312.730469 183.246094 312.511719 183.15625 312.257812 183.222656 Z M 304.617188 183.109375 C 304.984375 183.066406 305.339844 183.070312 305.6875 183.121094 C 305.320312 183.164062 304.960938 183.15625 304.617188 183.109375 Z M 302.808594 182.457031 C 303.074219 182.375 303.449219 182.414062 303.457031 182.332031 C 303.515625 182.34375 303.574219 182.359375 303.628906 182.371094 C 303.691406 182.359375 303.753906 182.351562 303.808594 182.371094 C 303.636719 182.460938 303.183594 182.511719 302.808594 182.457031 Z M 289.445312 183.179688 C 289.042969 183.125 289.566406 183.015625 289.824219 183.070312 C 289.566406 183.105469 289.777344 183.144531 289.445312 183.179688 Z M 283.46875 183.175781 C 283.859375 183.039062 284.167969 183.246094 284.546875 183.148438 C 284.324219 183.101562 284.105469 183.121094 284.300781 183.050781 C 284.695312 183.054688 284.511719 183.132812 284.894531 183.1875 C 285.300781 183.097656 285.652344 183.246094 286.0625 183.144531 C 285.828125 183.125 285.589844 183.144531 285.367188 183.0625 C 285.558594 183.011719 285.726562 183.0625 285.921875 182.992188 C 286.238281 183.023438 285.816406 183.140625 286.25 183.109375 C 286.519531 183.070312 285.996094 183.019531 286.371094 182.980469 C 286.550781 182.96875 286.722656 182.988281 286.894531 183.023438 C 286.863281 183.078125 286.484375 183.128906 286.589844 183.1875 C 286.800781 183.175781 286.996094 183.222656 287.199219 183.25 C 285.949219 183.261719 284.699219 183.269531 283.46875 183.175781 Z M 282.503906 183.109375 C 282.59375 183.027344 283.042969 183.097656 282.980469 182.984375 C 283.414062 183.039062 282.761719 183.167969 282.503906 183.109375 Z M 281.523438 183.117188 C 281.539062 183.035156 281.988281 183.0625 282.269531 182.972656 C 282.355469 182.996094 282.4375 183.015625 282.519531 183.035156 C 282.179688 183.09375 281.835938 183.175781 281.523438 183.117188 Z M 276.625 183.085938 C 276.914062 183.023438 276.964844 182.878906 277.457031 182.964844 C 277.175781 183.039062 276.976562 183.097656 277.507812 183.132812 C 277.199219 183.167969 276.910156 183.148438 276.625 183.085938 Z M 271.1875 183.085938 C 271.023438 183.027344 270.847656 183.023438 270.652344 183.082031 C 270.324219 182.964844 271.277344 182.839844 271.761719 182.90625 C 271.222656 182.980469 271.25 182.984375 271.1875 183.085938 Z M 144.460938 180.101562 C 144.566406 180.054688 144.660156 180.023438 144.835938 180.027344 C 144.742188 180.050781 144.867188 180.078125 144.996094 180.105469 C 144.808594 180.148438 144.632812 180.144531 144.460938 180.101562 Z M 115.550781 182.886719 C 115.097656 182.976562 114.160156 183.050781 113.449219 183.109375 C 113.175781 183.042969 113.390625 182.984375 113.667969 182.921875 C 114.101562 182.878906 114.726562 182.886719 115.390625 182.808594 C 115.476562 182.835938 115.644531 182.863281 115.550781 182.886719 Z M 111.042969 183.101562 C 110.898438 183.0625 110.820312 183.027344 110.890625 182.988281 C 111.492188 182.972656 112.097656 182.914062 112.6875 182.933594 C 112.136719 183 111.59375 183.035156 111.042969 183.101562 Z M 108.332031 183.261719 C 109.113281 183.167969 109.789062 183.132812 110.179688 182.980469 C 110.292969 183.007812 110.40625 183.035156 110.519531 183.058594 C 109.980469 183.097656 109.328125 183.339844 108.332031 183.261719 Z M 101.757812 183.15625 C 101.503906 183.105469 101.808594 183.058594 101.792969 183.007812 C 101.992188 183.039062 102.210938 182.992188 102.402344 183.070312 C 102.183594 183.113281 101.984375 183.089844 101.757812 183.15625 Z M 367.742188 182.371094 C 367.738281 182.261719 367.296875 182.292969 367.113281 182.382812 C 366.710938 182.328125 367.53125 182.269531 366.960938 182.265625 C 367.246094 182.210938 367.867188 182.199219 367.445312 182.105469 C 367.1875 182.101562 367.082031 182.144531 367.332031 182.195312 C 367.210938 182.214844 367.101562 182.175781 366.984375 182.15625 C 366.640625 182.195312 366.734375 182.242188 366.511719 182.28125 C 365.980469 182.273438 365.453125 182.234375 364.902344 182.300781 C 364.292969 182.105469 363.601562 182.265625 362.960938 182.207031 C 363.03125 182.058594 363.96875 182.164062 364.070312 182.035156 C 363.070312 182.082031 362.503906 181.945312 361.386719 182.082031 C 361.136719 181.996094 360.976562 181.925781 360.503906 182.035156 C 360.285156 181.949219 360.425781 181.859375 360.820312 181.832031 C 360.683594 181.78125 360.519531 181.839844 360.378906 181.808594 C 360.539062 181.875 359.957031 181.929688 360.335938 181.996094 C 359.734375 181.890625 359.082031 182.023438 358.464844 181.992188 C 359.292969 181.921875 359.828125 181.847656 360.015625 181.84375 C 359.777344 181.703125 358.699219 181.886719 358.125 181.914062 C 358.105469 181.820312 357.480469 181.839844 357.160156 181.851562 C 357.078125 181.875 357.261719 181.902344 357.144531 181.925781 C 357.050781 181.933594 356.964844 181.921875 356.871094 181.941406 C 356.847656 181.910156 357 181.878906 356.804688 181.847656 C 356.0625 181.839844 355.304688 181.90625 354.558594 181.917969 C 354.507812 181.898438 354.566406 181.878906 354.480469 181.863281 C 355.28125 181.828125 355.554688 181.769531 356.296875 181.730469 C 355.691406 181.636719 355.054688 181.707031 354.441406 181.65625 C 354.214844 181.71875 354.710938 181.679688 354.777344 181.730469 C 354.621094 181.78125 354.476562 181.769531 354.320312 181.785156 C 353.921875 181.726562 354.234375 181.632812 353.820312 181.628906 C 353.644531 181.660156 353.726562 181.691406 353.535156 181.71875 C 353.617188 181.738281 353.714844 181.714844 353.804688 181.703125 C 354 181.75 353.921875 181.898438 354.144531 181.78125 C 354.648438 181.890625 354.011719 181.925781 353.667969 181.910156 C 354.125 181.855469 353.171875 181.839844 353.523438 181.757812 C 353.296875 181.71875 353.03125 181.851562 352.796875 181.824219 C 352.550781 181.75 353.195312 181.707031 353.449219 181.699219 C 353.679688 181.652344 353.253906 181.601562 353.484375 181.550781 C 353.167969 181.5 352.820312 181.585938 352.511719 181.523438 C 352.542969 181.441406 352.878906 181.46875 353.078125 181.378906 C 352.777344 181.269531 352.417969 181.410156 352.113281 181.3125 C 351.9375 181.378906 352.507812 181.351562 352.621094 181.429688 C 352.355469 181.425781 352.082031 181.4375 351.824219 181.402344 C 352.207031 181.484375 351.984375 181.523438 351.867188 181.609375 C 351.777344 181.621094 351.6875 181.609375 351.59375 181.625 C 351.203125 181.585938 351.832031 181.554688 351.445312 181.511719 C 351.027344 181.632812 348.964844 181.519531 349.15625 181.378906 C 348.902344 181.441406 348.605469 181.402344 348.59375 181.484375 C 348.136719 181.421875 348.460938 181.371094 348.1875 181.3125 C 348.628906 181.335938 349.09375 181.261719 349.527344 181.304688 C 349.277344 181.222656 348.246094 181.199219 347.671875 181.230469 C 347.507812 181.191406 347.820312 181.160156 347.523438 181.117188 C 347.132812 181.171875 346.726562 181.230469 346.183594 181.125 C 346.113281 181.21875 345.738281 181.199219 345.960938 181.304688 C 345.714844 181.222656 345.355469 181.34375 344.902344 181.257812 C 345.136719 181.398438 344.164062 181.308594 344.15625 181.402344 C 343.523438 181.339844 344.554688 181.292969 344.105469 181.230469 C 343.820312 181.304688 343.554688 181.304688 343.292969 181.28125 C 343.269531 181.234375 343.371094 181.195312 343.410156 181.152344 C 344.335938 181.109375 345.207031 181.1875 345.921875 181.101562 C 345.730469 181.027344 345.496094 181.140625 345.308594 181.039062 C 344.105469 181.242188 343.023438 180.898438 341.828125 181.058594 C 340.742188 180.863281 338.628906 181.039062 338.136719 180.835938 C 337.78125 180.816406 337.429688 180.8125 337.074219 180.785156 C 336.855469 180.929688 336.265625 180.820312 335.8125 180.851562 C 335.789062 180.816406 335.941406 180.789062 335.746094 180.757812 C 335.691406 180.851562 335.058594 180.851562 335.121094 180.769531 C 334.113281 180.871094 333.175781 180.699219 332.179688 180.757812 C 332.449219 180.8125 331.945312 180.839844 331.796875 180.863281 C 331.644531 180.820312 332.1875 180.78125 332.09375 180.738281 C 331.285156 180.636719 330.429688 180.75 329.597656 180.75 C 329.648438 180.609375 328.648438 180.589844 328.453125 180.679688 C 328.292969 180.609375 328.101562 180.65625 327.9375 180.601562 C 327.449219 180.804688 325.679688 180.492188 324.625 180.660156 C 323.882812 180.445312 322.367188 180.773438 321.796875 180.554688 C 322.054688 180.578125 322.332031 180.554688 322.597656 180.546875 C 322.417969 180.441406 321.5 180.578125 320.816406 180.527344 C 320.539062 180.507812 319.550781 180.382812 319.488281 180.496094 C 319.300781 180.539062 319.148438 180.4375 318.972656 180.417969 C 318.332031 180.484375 317.726562 180.414062 317.085938 180.492188 C 316.363281 180.414062 314.785156 180.417969 313.628906 180.398438 C 305.933594 180.210938 298.222656 180.082031 290.507812 179.992188 L 147.957031 179.992188 C 147.804688 180.042969 147.703125 180.105469 147.402344 180.109375 C 147.351562 180.070312 147.277344 180.03125 147.292969 179.992188 L 147.121094 179.992188 C 147.15625 179.992188 147.203125 179.996094 147.25 179.996094 C 147.167969 180.046875 147 180.179688 146.597656 180.121094 C 147.222656 180.027344 146.453125 180.046875 146.378906 179.992188 L 145.6875 179.992188 C 145.539062 180.035156 145.457031 180.046875 145.257812 180.125 C 145.089844 180.082031 145.125 180.035156 145.136719 179.992188 L 142.640625 179.992188 C 141.765625 180.007812 140.886719 180.046875 139.988281 180.164062 C 139.195312 180.136719 137.898438 180.222656 137.363281 180.34375 C 135.632812 180.265625 132.617188 180.734375 130.378906 180.460938 C 130.917969 180.699219 129.039062 180.589844 129.140625 180.804688 C 128.671875 180.785156 128.144531 181 127.699219 180.863281 C 125.78125 181.070312 123.90625 181.082031 122.074219 180.898438 C 121.828125 180.957031 121.558594 181.015625 121.675781 181.082031 C 121.375 181.101562 121.085938 181.070312 120.804688 181 C 120.515625 181.082031 120.257812 181.039062 119.992188 181.046875 C 119.859375 181.148438 119.613281 181.132812 119.414062 181.226562 C 119.582031 181.277344 119.777344 181.195312 119.945312 181.230469 C 118.757812 181.359375 116.828125 181.355469 115.417969 181.167969 C 115.230469 181.304688 114.714844 181.332031 114.136719 181.304688 C 113 181.578125 111.539062 181.726562 110.089844 181.824219 C 109.921875 181.785156 109.753906 181.742188 109.582031 181.707031 C 109.722656 181.828125 108.785156 181.796875 108.390625 181.863281 C 108.355469 181.835938 108.316406 181.808594 108.40625 181.785156 C 107.117188 181.839844 105.910156 181.863281 104.871094 182.03125 C 103.519531 182.070312 101.703125 182.128906 100.609375 182.339844 C 99.695312 182.324219 97.984375 182.542969 97.246094 182.625 C 96.027344 182.765625 94.9375 182.878906 94.011719 183.0625 L 94.011719 183.082031 C 94.257812 183.09375 94.285156 183.148438 94.4375 183.195312 C 94.292969 183.230469 94.152344 183.230469 94.011719 183.234375 L 94.011719 183.273438 C 94.25 183.273438 94.40625 183.253906 94.589844 183.308594 C 95.039062 183.179688 95.78125 183.363281 95.945312 183.230469 C 96.160156 183.191406 96.34375 183.304688 96.542969 183.328125 C 97.117188 183.300781 97.683594 183.292969 98.25 183.289062 C 97.8125 183.363281 97.570312 183.382812 97.085938 183.472656 L 99.6875 183.472656 C 101.191406 183.429688 102.789062 183.363281 104.242188 183.21875 C 104.484375 183.199219 104.714844 183.222656 104.941406 183.265625 C 104.96875 183.234375 104.929688 183.203125 104.875 183.167969 C 105.144531 183.171875 105.417969 183.140625 105.691406 183.121094 C 106.0625 183.292969 107.113281 183.023438 107.613281 182.898438 C 107.863281 182.964844 107.476562 183.023438 107.214844 183.082031 C 107.464844 183.0625 107.839844 183.113281 107.8125 183.179688 C 107.363281 183.261719 107.289062 183.191406 106.984375 183.304688 C 107.179688 183.359375 107.429688 183.1875 107.609375 183.292969 C 107.945312 183.257812 107.734375 183.21875 107.992188 183.183594 C 108.113281 183.175781 108.234375 183.167969 108.347656 183.1875 C 108.339844 183.25 107.949219 183.308594 107.949219 183.371094 C 107.859375 183.382812 107.773438 183.367188 107.679688 183.386719 C 107.898438 183.273438 107.128906 183.359375 106.789062 183.375 C 106.625 183.34375 106.722656 183.3125 106.542969 183.28125 C 106.050781 183.316406 105.800781 183.402344 105.507812 183.472656 L 296.207031 183.472656 C 296.152344 183.441406 296.140625 183.410156 295.90625 183.375 C 295.636719 183.394531 295.347656 183.480469 295.101562 183.386719 C 294.652344 183.578125 293.585938 183.328125 292.855469 183.457031 C 292.933594 183.417969 292.542969 183.378906 292.703125 183.34375 C 292.25 183.378906 291.789062 183.441406 291.371094 183.3125 C 291.183594 183.359375 291.003906 183.375 290.824219 183.378906 C 290.804688 183.355469 290.785156 183.328125 290.664062 183.304688 C 290.570312 183.363281 290.085938 183.359375 290.304688 183.300781 C 290.019531 183.351562 289.554688 183.335938 289.0625 183.289062 C 289.160156 183.371094 288.921875 183.371094 288.59375 183.375 C 288.511719 183.351562 288.695312 183.328125 288.789062 183.304688 C 288.351562 183.269531 287.898438 183.304688 287.460938 183.269531 C 287.824219 183.183594 287.917969 183.292969 288.105469 183.183594 C 287.84375 183.164062 287.582031 183.132812 287.308594 183.15625 C 287.222656 183.125 287.472656 183.097656 287.597656 183.066406 C 287.921875 183.070312 288.222656 183.195312 288.570312 183.09375 C 288.175781 183.117188 288.371094 182.96875 287.972656 182.996094 C 287.875 182.910156 288.21875 182.90625 288.53125 182.890625 C 288.679688 182.933594 288.449219 182.976562 288.410156 183.019531 C 288.746094 183.074219 288.882812 182.980469 289.054688 182.933594 C 289.351562 182.9375 289.65625 182.90625 289.9375 182.980469 C 289.28125 182.953125 289.421875 183.09375 288.9375 183.0625 C 288.757812 183.128906 289.496094 183.097656 288.910156 183.175781 C 288.554688 183.230469 289.007812 183.058594 288.65625 183.117188 C 288.175781 183.191406 288.589844 183.15625 288.808594 183.230469 C 288.6875 183.234375 288.566406 183.242188 288.453125 183.226562 C 288.824219 183.296875 290 183.199219 290.671875 183.265625 C 290.507812 183.15625 291.011719 183.246094 291.054688 183.15625 C 290.636719 183.15625 290.21875 183.167969 289.792969 183.21875 C 289.628906 182.96875 291.070312 183.0625 291.539062 182.996094 C 292.175781 183.09375 291.53125 183.179688 291.917969 183.28125 C 291.96875 183.15625 292.5 183.316406 292.824219 183.214844 C 292.542969 183.230469 291.769531 183.179688 292.054688 183.074219 C 292.523438 183.203125 292.53125 183.015625 293.207031 183.105469 C 293.558594 183.164062 293.082031 183.214844 293.433594 183.277344 C 293.589844 183.246094 293.742188 183.214844 293.898438 183.1875 C 293.769531 183.160156 293.644531 183.132812 293.738281 183.109375 C 294.589844 183.027344 295.414062 183.070312 296.253906 183.023438 C 296.011719 182.933594 295.726562 182.996094 295.46875 182.960938 C 295.980469 182.902344 296.882812 182.863281 297.058594 183.015625 C 296.828125 182.996094 296.585938 183.011719 296.332031 183.082031 C 296.214844 183.152344 296.753906 183.109375 296.578125 183.175781 C 297.140625 183.164062 297.644531 183.019531 298 183.191406 C 298.226562 183.117188 298.421875 183.164062 298.628906 183.179688 C 298.628906 183.148438 298.832031 183.117188 298.738281 183.085938 C 299.375 183.15625 300.53125 183.035156 300.859375 183.183594 C 301.242188 183.179688 301.632812 183.148438 302.023438 183.140625 C 302.035156 183.167969 301.984375 183.199219 301.914062 183.230469 C 302.242188 183.273438 302.164062 183.164062 302.382812 183.140625 C 302.726562 183.207031 302.5 183.269531 302.339844 183.328125 C 302.734375 183.363281 303.25 183.328125 303.378906 183.453125 C 303.511719 183.378906 303.1875 183.300781 303.605469 183.230469 C 303.0625 183.167969 303.367188 183.390625 302.703125 183.292969 C 302.601562 183.222656 302.75 183.175781 303.09375 183.152344 C 303.785156 183.121094 304.421875 183.3125 305.117188 183.265625 C 305.351562 183.371094 304.8125 183.324219 304.554688 183.371094 C 304.84375 183.425781 305.152344 183.367188 305.457031 183.339844 C 305.4375 183.316406 305.414062 183.292969 305.292969 183.265625 C 305.535156 183.246094 305.613281 183.3125 305.660156 183.230469 C 306.144531 183.3125 306.695312 183.121094 307.160156 183.304688 C 307.234375 183.21875 307.984375 183.214844 308.046875 183.3125 C 308.375 183.15625 309.210938 183.167969 309.757812 183.234375 C 309.933594 183.210938 309.839844 183.1875 309.953125 183.164062 C 310.40625 183.230469 310.9375 183.179688 310.902344 183.304688 C 311.117188 183.261719 311.335938 183.222656 311.554688 183.179688 C 312.148438 183.246094 311.347656 183.300781 311.691406 183.367188 C 312.09375 183.292969 312.476562 183.316406 312.851562 183.359375 C 312.921875 183.300781 313.304688 183.242188 313.429688 183.179688 C 313.65625 183.257812 312.96875 183.324219 313.375 183.40625 C 313.417969 183.222656 314.558594 183.242188 315.089844 183.328125 C 315.550781 183.296875 315.519531 183.183594 316.003906 183.226562 C 315.96875 183.292969 315.617188 183.363281 316.15625 183.339844 C 316.21875 183.386719 316.058594 183.429688 315.832031 183.472656 L 316.210938 183.472656 C 316.234375 183.449219 316.257812 183.421875 316.410156 183.398438 C 316.714844 183.363281 316.78125 183.417969 316.921875 183.472656 L 317.164062 183.472656 C 317.109375 183.4375 316.953125 183.398438 316.773438 183.363281 C 317.15625 183.386719 317.125 183.300781 317.570312 183.390625 C 317.976562 183.359375 317.371094 183.3125 317.777344 183.28125 C 318.140625 183.375 318.976562 183.359375 319.621094 183.394531 C 319.742188 183.347656 319.109375 183.328125 318.917969 183.347656 C 318.828125 183.203125 319.699219 183.230469 320.09375 183.265625 C 320.34375 183.359375 319.472656 183.265625 319.71875 183.335938 C 320.152344 183.4375 320.085938 183.277344 320.527344 183.328125 C 319.996094 183.492188 321.707031 183.332031 322.355469 183.472656 L 322.542969 183.472656 C 322.820312 183.410156 323.402344 183.375 323.832031 183.304688 C 323.75 183.46875 325.222656 183.339844 325.441406 183.28125 C 325.570312 183.3125 325.699219 183.335938 325.601562 183.359375 C 325.757812 183.304688 326.117188 183.371094 326.507812 183.292969 C 326.765625 183.433594 327.125 183.304688 327.765625 183.269531 C 327.886719 183.316406 327.652344 183.355469 328 183.402344 C 329.128906 183.316406 329.707031 183.40625 330.863281 183.359375 C 330.984375 183.40625 330.75 183.449219 331.109375 183.453125 C 331.152344 183.316406 331.636719 183.382812 331.910156 183.472656 L 331.972656 183.472656 C 331.929688 183.371094 332.464844 183.3125 332.914062 183.359375 C 333.046875 183.453125 332.351562 183.355469 332.445312 183.449219 C 332.503906 183.464844 332.566406 183.46875 332.628906 183.472656 L 332.933594 183.472656 C 332.949219 183.441406 332.902344 183.417969 333.167969 183.417969 C 333.226562 183.4375 333.128906 183.453125 333.070312 183.472656 L 333.769531 183.472656 C 333.777344 183.464844 333.789062 183.453125 333.789062 183.441406 C 333.96875 183.429688 333.996094 183.449219 334 183.472656 L 334.289062 183.472656 C 334.421875 183.433594 334.6875 183.414062 334.957031 183.398438 C 335.066406 183.492188 335.191406 183.441406 335.414062 183.472656 L 335.582031 183.472656 C 335.683594 183.421875 336.054688 183.433594 336.277344 183.46875 C 336.277344 183.472656 336.273438 183.472656 336.273438 183.472656 L 337.484375 183.472656 C 337.535156 183.457031 337.566406 183.4375 337.539062 183.40625 C 337.855469 183.460938 338.21875 183.300781 338.53125 183.359375 C 338.734375 183.433594 338.371094 183.421875 338.09375 183.472656 L 339.035156 183.472656 C 339.378906 183.324219 340.355469 183.417969 340.667969 183.382812 C 340.640625 183.425781 340.460938 183.453125 340.285156 183.472656 L 341.226562 183.472656 C 341.15625 183.457031 341.085938 183.441406 341.011719 183.421875 C 341.199219 183.375 341.386719 183.359375 341.554688 183.390625 C 341.261719 183.417969 341.5 183.445312 341.496094 183.472656 L 342.460938 183.472656 C 342.492188 183.472656 342.519531 183.472656 342.546875 183.472656 L 344.558594 183.472656 C 344.761719 183.449219 344.949219 183.460938 345.089844 183.472656 L 345.296875 183.472656 C 345.34375 183.464844 345.375 183.449219 345.386719 183.410156 C 345.488281 183.433594 345.5 183.453125 345.476562 183.472656 L 346.375 183.472656 C 346.425781 183.464844 346.480469 183.460938 346.535156 183.441406 C 345.191406 183.335938 343.832031 183.316406 342.46875 183.289062 C 342.082031 183.246094 342.707031 183.214844 342.316406 183.175781 C 341.980469 183.171875 342.074219 183.214844 341.855469 183.265625 C 341.511719 183.1875 342.105469 183.117188 342.4375 183.046875 C 343.195312 183.058594 344.011719 183.234375 345.003906 183.128906 C 345.269531 183.128906 345.523438 183.203125 345.792969 183.191406 C 345.558594 183.105469 345.628906 183.117188 346.15625 183.15625 C 346.472656 183.121094 346.175781 183.082031 346.359375 183.046875 C 347 183.199219 347.179688 183.089844 347.777344 183.097656 C 348.015625 183.140625 347.789062 183.175781 348.105469 183.214844 C 348.085938 183.132812 348.375 183.082031 348.75 183.128906 C 348.988281 183.167969 348.277344 183.199219 348.722656 183.242188 C 348.851562 183.203125 348.96875 183.222656 349.078125 183.242188 C 349.097656 183.210938 349.199219 183.183594 349.367188 183.152344 C 350.128906 183.203125 350.503906 183.222656 351.113281 183.320312 C 351.296875 183.164062 351.695312 183.363281 352.101562 183.277344 C 352.273438 183.347656 351.757812 183.292969 351.636719 183.363281 C 351.964844 183.363281 352.292969 183.347656 352.609375 183.390625 C 352.792969 183.375 352.996094 183.277344 353.164062 183.324219 C 353.070312 183.222656 353.175781 183.234375 353.644531 183.160156 C 352.960938 183.175781 352.703125 183.050781 352.136719 183.125 C 351.824219 183.039062 352.371094 183.0625 352.078125 182.992188 C 351.703125 183.046875 351.671875 183.101562 351.777344 183.160156 C 351.558594 183.183594 351.355469 183.164062 351.136719 183.207031 C 351.140625 183.085938 350.558594 183.140625 350.257812 183.164062 C 350.046875 183.082031 350.652344 183.097656 350.742188 183 C 350.402344 182.980469 350.382812 183.011719 350.191406 183.070312 C 350.082031 183.039062 349.835938 182.960938 349.328125 182.949219 C 349.324219 182.996094 349.003906 183.042969 348.757812 183.09375 C 348.660156 183.027344 348.808594 182.96875 348.445312 182.902344 C 348.195312 182.953125 347.972656 182.890625 347.734375 182.894531 C 347.839844 182.851562 347.632812 182.804688 347.671875 182.761719 C 346.714844 182.789062 345.777344 182.746094 344.839844 182.695312 C 344.277344 182.808594 343.78125 182.636719 343.226562 182.71875 C 342.332031 182.511719 340.917969 182.808594 340.324219 182.558594 C 340.128906 182.625 339.960938 182.574219 339.769531 182.625 C 339.550781 182.554688 339.316406 182.546875 339.085938 182.507812 C 339.457031 182.464844 339.738281 182.542969 339.910156 182.421875 C 339.734375 182.519531 340.117188 182.472656 340.425781 182.5 C 340.660156 182.425781 340.316406 182.441406 340.085938 182.425781 C 340.523438 182.339844 340.925781 182.394531 341.339844 182.402344 C 341.492188 182.4375 340.921875 182.457031 340.796875 182.429688 C 340.929688 182.53125 341.863281 182.4375 342.304688 182.464844 C 342.113281 182.390625 341.886719 182.476562 341.695312 182.402344 C 342.507812 182.4375 342.835938 182.347656 343.585938 182.328125 C 343.839844 182.375 342.984375 182.410156 343.464844 182.460938 C 343.589844 182.4375 343.714844 182.414062 343.839844 182.386719 C 344.601562 182.472656 345.53125 182.417969 346.078125 182.351562 C 345.542969 182.453125 346.398438 182.429688 346.855469 182.453125 C 346.917969 182.40625 347.148438 182.363281 346.789062 182.359375 C 347.433594 182.226562 347.484375 182.441406 348.039062 182.335938 C 348.28125 182.394531 348.140625 182.449219 348.089844 182.507812 C 348.332031 182.535156 348.746094 182.414062 348.746094 182.382812 C 349.121094 182.339844 349.785156 182.511719 349.90625 182.375 C 350.0625 182.375 350.648438 182.433594 350.507812 182.472656 C 350.867188 182.390625 351.851562 182.375 352.652344 182.460938 C 352.175781 182.496094 352.230469 182.480469 351.820312 182.582031 C 352.105469 182.625 352.394531 182.65625 352.683594 182.703125 C 352.949219 182.683594 352.4375 182.566406 352.792969 182.609375 C 352.976562 182.511719 352.390625 182.609375 352.257812 182.605469 C 352.207031 182.480469 353.265625 182.40625 353.699219 182.542969 C 354.289062 182.558594 354.941406 182.320312 355.503906 182.449219 C 355.628906 182.425781 355.753906 182.402344 355.878906 182.378906 C 356.171875 182.417969 355.847656 182.453125 355.851562 182.488281 C 356.203125 182.523438 356.589844 182.382812 356.929688 182.464844 C 357.097656 182.535156 356.578125 182.511719 356.460938 182.554688 C 357.472656 182.511719 358.421875 182.449219 359.035156 182.597656 C 359.335938 182.597656 359.628906 182.613281 359.941406 182.53125 C 359.742188 182.5 359.699219 182.46875 359.875 182.4375 C 360.214844 182.535156 361.203125 182.421875 361.816406 182.53125 C 361.597656 182.578125 361.378906 182.621094 361.179688 182.582031 C 361.347656 182.648438 362.289062 182.660156 362.765625 182.671875 C 363.195312 182.582031 362.457031 182.667969 362.339844 182.578125 C 362.652344 182.515625 362.9375 182.578125 363.246094 182.511719 C 363.183594 182.476562 363.195312 182.449219 363.359375 182.417969 C 363.136719 182.363281 363.03125 182.40625 363.019531 182.339844 C 363.140625 182.335938 363.257812 182.332031 363.382812 182.304688 C 363.808594 182.453125 363.945312 182.414062 364.503906 182.484375 C 364.183594 182.574219 363.921875 182.425781 363.601562 182.511719 C 363.796875 182.585938 364.015625 182.542969 364.207031 182.613281 C 364.035156 182.535156 364.867188 182.484375 365.214844 182.492188 C 365.296875 182.519531 365.117188 182.542969 365.019531 182.566406 C 365.234375 182.65625 365.492188 182.578125 365.714844 182.648438 C 365.871094 182.613281 365.484375 182.570312 365.5625 182.535156 C 366.199219 182.472656 366.800781 182.574219 367.433594 182.535156 C 367.457031 182.4375 366.976562 182.542969 366.730469 182.488281 C 366.679688 182.472656 366.738281 182.453125 366.65625 182.433594 C 367.101562 182.472656 367.238281 182.402344 367.742188 182.371094 " fill-opacity="1" fill-rule="evenodd"/></g><g clip-path="url(#4adced3c98)"><path fill="#820808" d="M 319.992188 180.257812 C 320.148438 180.222656 319.761719 180.183594 319.839844 180.144531 C 319.933594 180.128906 320.015625 180.15625 320.101562 180.164062 C 320.246094 180.117188 320.167969 180.097656 319.9375 180.089844 C 320.265625 180.019531 320.578125 180.019531 320.890625 179.992188 L 318.976562 179.992188 C 319.207031 180.039062 319.449219 180.015625 319.683594 180.03125 C 319.746094 180.125 319.105469 180.003906 318.871094 180.078125 C 319.425781 180.207031 318.617188 180.125 318.40625 180.167969 C 319.242188 180.308594 319.1875 180.15625 319.992188 180.257812 " fill-opacity="1" fill-rule="evenodd"/></g><g clip-path="url(#d6b0f668e5)"><path fill="#820808" d="M 323.703125 180.015625 C 323.796875 180.054688 323.480469 180.089844 323.855469 180.128906 C 324.285156 179.992188 325.65625 179.96875 325.640625 180.113281 C 326.027344 180.101562 326.398438 180.171875 326.808594 180.066406 C 327.265625 180.222656 328.015625 180.050781 328.207031 180.195312 C 328.722656 179.976562 329.828125 180.324219 330.625 180.160156 C 331.355469 180.21875 332.109375 180.164062 332.835938 180.242188 C 333.070312 180.296875 332.378906 180.242188 332.816406 180.3125 C 334.042969 180.152344 335.171875 180.402344 336.382812 180.3125 C 336.242188 180.277344 336.089844 180.296875 335.953125 180.253906 C 335.882812 180.226562 336.082031 180.203125 335.96875 180.175781 C 336.5 180.199219 337.011719 180.296875 337.546875 180.308594 C 337.648438 180.257812 337.40625 180.269531 337.292969 180.246094 C 337.148438 180.179688 337.6875 180.265625 337.84375 180.179688 C 337.859375 180.230469 337.945312 180.246094 338.179688 180.257812 C 338.683594 180.046875 339.578125 180.34375 340.332031 180.203125 C 340.640625 180.257812 340.628906 180.308594 340.300781 180.355469 C 340.519531 180.421875 340.773438 180.355469 341 180.398438 C 341.101562 180.367188 340.867188 180.335938 340.753906 180.300781 C 341.011719 180.222656 341.242188 180.246094 341.484375 180.234375 C 341.609375 180.273438 341.515625 180.308594 341.28125 180.34375 C 341.917969 180.277344 342.527344 180.347656 343.152344 180.34375 C 343.246094 180.382812 342.929688 180.417969 343.304688 180.457031 C 343.699219 180.269531 345.566406 180.417969 346.1875 180.335938 C 346.367188 180.429688 347.082031 180.414062 346.507812 180.492188 C 346.886719 180.515625 346.929688 180.464844 346.972656 180.402344 C 347.351562 180.394531 347.40625 180.585938 347.929688 180.503906 C 347.765625 180.4375 347.574219 180.503906 347.40625 180.460938 C 347.527344 180.445312 347.554688 180.425781 347.507812 180.40625 C 348.398438 180.425781 349.261719 180.539062 350.183594 180.398438 C 350.140625 180.503906 350.214844 180.488281 350.496094 180.585938 C 350.785156 180.535156 350.429688 180.472656 350.269531 180.417969 C 350.777344 180.269531 351.199219 180.519531 351.699219 180.394531 C 352.230469 180.46875 351.449219 180.527344 351.742188 180.601562 C 352.082031 180.535156 351.921875 180.464844 352.058594 180.398438 C 352.410156 180.335938 352.394531 180.472656 352.582031 180.441406 C 352.667969 180.472656 352.417969 180.503906 352.292969 180.53125 C 352.597656 180.5625 353.097656 180.511719 352.9375 180.441406 C 353.535156 180.574219 353.546875 180.460938 353.972656 180.601562 C 354.570312 180.535156 354.617188 180.566406 355.21875 180.617188 C 355.304688 180.566406 354.992188 180.515625 355.429688 180.46875 C 355.289062 180.4375 355.148438 180.402344 355.007812 180.371094 C 354.679688 180.367188 354.828125 180.464844 354.472656 180.367188 C 354.28125 180.390625 354.363281 180.414062 354.453125 180.441406 C 353.902344 180.429688 352.179688 180.453125 352.53125 180.269531 C 352.363281 180.226562 352.160156 180.324219 351.980469 180.34375 C 351.695312 180.261719 351.949219 180.203125 352.285156 180.175781 C 352.109375 180.152344 351.195312 180.152344 351.558594 180.242188 C 351.164062 180.269531 350.800781 180.183594 350.386719 180.289062 C 350.238281 180.242188 350.777344 180.203125 350.683594 180.160156 C 350.394531 180.082031 349.453125 180.21875 349.730469 180.058594 C 349.511719 180.011719 349.398438 180.113281 349.535156 180.128906 C 349.207031 180.128906 348.882812 180.121094 348.566406 180.066406 C 348.476562 180.09375 348.570312 180.125 348.457031 180.15625 C 348.242188 180.1875 348.046875 180.136719 347.828125 180.167969 C 347.820312 180.136719 347.871094 180.105469 347.941406 180.078125 C 347.152344 180.144531 346.382812 180.128906 345.621094 180.089844 C 345.425781 180.035156 345.898438 180.085938 345.992188 180.019531 C 345.796875 179.976562 345.589844 180.011719 345.390625 179.992188 L 343.878906 179.992188 C 343.871094 179.996094 343.867188 179.992188 343.855469 179.996094 C 343.847656 179.996094 343.84375 179.992188 343.835938 179.992188 L 323.222656 179.992188 C 323.378906 180.015625 323.53125 180.050781 323.703125 180.015625 " fill-opacity="1" fill-rule="evenodd"/></g><g clip-path="url(#fda5fc542c)"><path fill="#820808" d="M 312.996094 179.992188 C 312.6875 180.179688 314.101562 180.089844 314.578125 180.148438 C 314.761719 180.046875 314.179688 180.125 314.0625 180.066406 C 313.917969 179.988281 314.476562 180.015625 314.609375 180 C 315.160156 180.246094 316.382812 180.105469 317.238281 180.210938 C 317.585938 180.171875 317.183594 180.125 317.535156 180.085938 C 317.65625 180.070312 317.765625 180.113281 317.890625 180.089844 C 317.976562 180.121094 317.730469 180.148438 317.601562 180.175781 C 317.855469 180.230469 318.125 180.230469 318.40625 180.167969 C 318.425781 180.128906 318.125 180.089844 318.429688 180.058594 C 318.261719 180.015625 318.070312 180.082031 317.90625 180.011719 C 317.96875 180 318.023438 179.996094 318.082031 179.992188 L 317.253906 179.992188 C 317.015625 180.046875 316.792969 180.035156 316.570312 180.015625 C 316.628906 180.007812 316.6875 180 316.75 179.992188 L 312.996094 179.992188 " fill-opacity="1" fill-rule="evenodd"/></g><g fill="#820808" fill-opacity="1"><g transform="translate(0.680461, 167.977636)"><g><path d="M 119.875 -0.953125 C 116.25 2.984375 112.082031 4.953125 107.375 4.953125 C 102.664062 4.953125 98.140625 2.679688 93.796875 -1.859375 C 89.453125 -6.410156 85.832031 -12.910156 82.9375 -21.359375 C 80.039062 -29.816406 78.023438 -37.382812 76.890625 -44.0625 C 74.316406 -38.914062 72.304688 -34.992188 70.859375 -32.296875 C 69.410156 -29.597656 67.273438 -26.15625 64.453125 -21.96875 C 61.640625 -17.78125 58.707031 -14 55.65625 -10.625 C 46.15625 -0.40625 35.410156 4.703125 23.421875 4.703125 C 12.554688 4.703125 5.796875 1.765625 3.140625 -4.109375 C 2.492188 -5.472656 2.171875 -7.0625 2.171875 -8.875 C 2.171875 -10.6875 3.097656 -12.640625 4.953125 -14.734375 C 7.929688 -18.023438 12.035156 -19.671875 17.265625 -19.671875 C 20.804688 -19.671875 24.546875 -18.988281 28.484375 -17.625 C 29.535156 -17.21875 29.9375 -16.773438 29.6875 -16.296875 C 29.445312 -15.816406 28.398438 -15.9375 26.546875 -16.65625 C 24.703125 -17.382812 22.472656 -17.75 19.859375 -17.75 C 17.242188 -17.75 14.988281 -16.738281 13.09375 -14.71875 C 11.207031 -12.707031 10.265625 -10.617188 10.265625 -8.453125 C 10.265625 -7.484375 10.460938 -6.4375 10.859375 -5.3125 C 12.472656 -1.125 16.257812 0.96875 22.21875 0.96875 C 28.8125 0.96875 34.644531 -1.003906 39.71875 -4.953125 C 42.613281 -7.203125 45.226562 -9.492188 47.5625 -11.828125 C 49.894531 -14.160156 52.390625 -17.300781 55.046875 -21.25 C 59.234375 -27.28125 62.796875 -32.890625 65.734375 -38.078125 C 68.671875 -43.273438 71.847656 -48.953125 75.265625 -55.109375 C 78.691406 -61.265625 81.207031 -65.75 82.8125 -68.5625 C 87.957031 -77.34375 92.664062 -84.066406 96.9375 -88.734375 C 92.425781 -89.128906 87.921875 -89.328125 83.421875 -89.328125 C 73.117188 -89.328125 62.875 -88.257812 52.6875 -86.125 C 42.507812 -84 34.441406 -80.476562 28.484375 -75.5625 C 21.003906 -69.375 17.265625 -62.773438 17.265625 -55.765625 C 17.265625 -52.390625 18.46875 -49.394531 20.875 -46.78125 C 23.289062 -44.164062 26.550781 -42.859375 30.65625 -42.859375 C 35.644531 -42.859375 39.789062 -44.628906 43.09375 -48.171875 C 46.394531 -51.710938 48.125 -54.523438 48.28125 -56.609375 C 48.363281 -57.660156 48.609375 -58.1875 49.015625 -58.1875 C 49.660156 -58.1875 49.941406 -57.582031 49.859375 -56.375 C 49.296875 -52.507812 47.726562 -49.25 45.15625 -46.59375 C 40.644531 -41.925781 35.25 -39.59375 28.96875 -39.59375 C 24.21875 -39.59375 20.09375 -41.203125 16.59375 -44.421875 C 13.09375 -47.640625 11.34375 -51.945312 11.34375 -57.34375 C 11.34375 -65.3125 15.222656 -72.453125 22.984375 -78.765625 C 30.753906 -85.085938 40.957031 -89.171875 53.59375 -91.015625 C 62.613281 -92.304688 70.925781 -92.953125 78.53125 -92.953125 C 86.132812 -92.953125 93.15625 -92.507812 99.59375 -91.625 C 101.6875 -93.875 103.132812 -95 103.9375 -95 C 104.414062 -95 104.65625 -94.617188 104.65625 -93.859375 C 104.65625 -93.097656 104.457031 -92.148438 104.0625 -91.015625 C 110.019531 -90.054688 114.003906 -89.296875 116.015625 -88.734375 C 128.085938 -85.191406 134.125 -79.71875 134.125 -72.3125 C 134.125 -67.5625 131.1875 -62.851562 125.3125 -58.1875 C 117.90625 -52.46875 108.003906 -48.601562 95.609375 -46.59375 C 92.066406 -46.03125 88.363281 -45.671875 84.5 -45.515625 C 87.070312 -31.265625 91.539062 -19.269531 97.90625 -9.53125 C 100.070312 -6.238281 102.0625 -3.847656 103.875 -2.359375 C 105.6875 -0.867188 107.640625 -0.125 109.734375 -0.125 C 112.628906 -0.125 115.707031 -1.734375 118.96875 -4.953125 C 122.226562 -8.171875 125.988281 -14.046875 130.25 -22.578125 C 130.894531 -23.785156 131.539062 -24.390625 132.1875 -24.390625 C 132.832031 -24.390625 132.875 -23.785156 132.3125 -22.578125 C 127.644531 -12.109375 123.5 -4.898438 119.875 -0.953125 Z M 125.421875 -74.125 C 125.421875 -74.769531 125.34375 -75.410156 125.1875 -76.046875 C 124.300781 -80.554688 120.71875 -83.773438 114.4375 -85.703125 C 112.507812 -86.273438 108.566406 -87.039062 102.609375 -88 C 101.160156 -85.507812 97.617188 -79.675781 91.984375 -70.5 C 86.347656 -61.320312 82.164062 -54.039062 79.4375 -48.65625 C 81.207031 -48.96875 83.800781 -49.265625 87.21875 -49.546875 C 90.632812 -49.835938 93.109375 -50.0625 94.640625 -50.21875 C 103.816406 -51.34375 111.625 -54.925781 118.0625 -60.96875 C 122.96875 -65.46875 125.421875 -69.851562 125.421875 -74.125 Z M 125.421875 -74.125 "/></g></g></g><g fill="#000000" fill-opacity="1"><g transform="translate(177.597436, 198.788471)"><g><path d="M 1.25 0 L 1.25 -11.421875 L 8.640625 -11.421875 L 8.640625 -9.40625 L 3.5625 -9.40625 L 3.5625 -6.734375 L 7.625 -6.734375 L 7.625 -4.75 L 3.5625 -4.75 L 3.5625 -2.015625 L 8.640625 -2.015625 L 8.640625 0 Z M 1.25 0 "/></g></g></g><g fill="#000000" fill-opacity="1"><g transform="translate(186.903196, 198.788471)"><g><path d="M 7.078125 -6.296875 C 5.679688 -6.472656 4.707031 -6.5625 4.15625 -6.5625 C 3.601562 -6.5625 3.242188 -6.507812 3.078125 -6.40625 C 2.921875 -6.3125 2.84375 -6.15625 2.84375 -5.9375 C 2.84375 -5.71875 2.953125 -5.566406 3.171875 -5.484375 C 3.390625 -5.398438 3.945312 -5.273438 4.84375 -5.109375 C 5.75 -4.953125 6.390625 -4.6875 6.765625 -4.3125 C 7.148438 -3.945312 7.34375 -3.347656 7.34375 -2.515625 C 7.34375 -0.703125 6.21875 0.203125 3.96875 0.203125 C 3.226562 0.203125 2.332031 0.101562 1.28125 -0.09375 L 0.734375 -0.203125 L 0.8125 -2.078125 C 2.195312 -1.898438 3.160156 -1.8125 3.703125 -1.8125 C 4.242188 -1.8125 4.613281 -1.863281 4.8125 -1.96875 C 5.007812 -2.082031 5.109375 -2.242188 5.109375 -2.453125 C 5.109375 -2.660156 5.003906 -2.816406 4.796875 -2.921875 C 4.585938 -3.023438 4.046875 -3.148438 3.171875 -3.296875 C 2.304688 -3.441406 1.660156 -3.6875 1.234375 -4.03125 C 0.816406 -4.375 0.609375 -4.988281 0.609375 -5.875 C 0.609375 -6.769531 0.910156 -7.441406 1.515625 -7.890625 C 2.117188 -8.347656 2.894531 -8.578125 3.84375 -8.578125 C 4.507812 -8.578125 5.410156 -8.472656 6.546875 -8.265625 L 7.109375 -8.15625 Z M 7.078125 -6.296875 "/></g></g></g><g fill="#000000" fill-opacity="1"><g transform="translate(194.831567, 198.788471)"><g><path d="M 5.6875 -6.484375 L 3.625 -6.484375 L 3.625 -3.046875 C 3.625 -2.703125 3.628906 -2.457031 3.640625 -2.3125 C 3.660156 -2.175781 3.722656 -2.054688 3.828125 -1.953125 C 3.941406 -1.859375 4.109375 -1.8125 4.328125 -1.8125 L 5.609375 -1.84375 L 5.703125 -0.046875 C 4.953125 0.117188 4.382812 0.203125 4 0.203125 C 2.988281 0.203125 2.296875 -0.0195312 1.921875 -0.46875 C 1.554688 -0.925781 1.375 -1.765625 1.375 -2.984375 L 1.375 -6.484375 L 0.390625 -6.484375 L 0.390625 -8.390625 L 1.375 -8.390625 L 1.375 -10.734375 L 3.625 -10.734375 L 3.625 -8.390625 L 5.6875 -8.390625 Z M 5.6875 -6.484375 "/></g></g></g><g fill="#000000" fill-opacity="1"><g transform="translate(200.945819, 198.788471)"><g><path d="M 7.46875 -5.78125 L 7.46875 -2.28125 C 7.5 -2.007812 7.546875 -1.820312 7.609375 -1.71875 C 7.671875 -1.613281 7.8125 -1.539062 8.03125 -1.5 L 7.96875 0.203125 C 7.394531 0.203125 6.9375 0.160156 6.59375 0.078125 C 6.25 0.00390625 5.90625 -0.148438 5.5625 -0.390625 C 4.75 0.00390625 3.925781 0.203125 3.09375 0.203125 C 1.351562 0.203125 0.484375 -0.710938 0.484375 -2.546875 C 0.484375 -3.441406 0.722656 -4.078125 1.203125 -4.453125 C 1.691406 -4.828125 2.429688 -5.050781 3.421875 -5.125 L 5.21875 -5.25 L 5.21875 -5.78125 C 5.21875 -6.125 5.140625 -6.359375 4.984375 -6.484375 C 4.828125 -6.617188 4.578125 -6.6875 4.234375 -6.6875 L 1.078125 -6.546875 L 1 -8.109375 C 2.207031 -8.429688 3.347656 -8.59375 4.421875 -8.59375 C 5.503906 -8.59375 6.28125 -8.367188 6.75 -7.921875 C 7.226562 -7.472656 7.46875 -6.757812 7.46875 -5.78125 Z M 3.6875 -3.5625 C 3.0625 -3.507812 2.75 -3.171875 2.75 -2.546875 C 2.75 -1.929688 3.023438 -1.625 3.578125 -1.625 C 4.003906 -1.625 4.46875 -1.691406 4.96875 -1.828125 L 5.21875 -1.890625 L 5.21875 -3.6875 Z M 3.6875 -3.5625 "/></g></g></g><g fill="#000000" fill-opacity="1"><g transform="translate(209.529281, 198.788471)"><g><path d="M 5.6875 -6.484375 L 3.625 -6.484375 L 3.625 -3.046875 C 3.625 -2.703125 3.628906 -2.457031 3.640625 -2.3125 C 3.660156 -2.175781 3.722656 -2.054688 3.828125 -1.953125 C 3.941406 -1.859375 4.109375 -1.8125 4.328125 -1.8125 L 5.609375 -1.84375 L 5.703125 -0.046875 C 4.953125 0.117188 4.382812 0.203125 4 0.203125 C 2.988281 0.203125 2.296875 -0.0195312 1.921875 -0.46875 C 1.554688 -0.925781 1.375 -1.765625 1.375 -2.984375 L 1.375 -6.484375 L 0.390625 -6.484375 L 0.390625 -8.390625 L 1.375 -8.390625 L 1.375 -10.734375 L 3.625 -10.734375 L 3.625 -8.390625 L 5.6875 -8.390625 Z M 5.6875 -6.484375 "/></g></g></g><g fill="#000000" fill-opacity="1"><g transform="translate(215.643533, 198.788471)"><g><path d="M 2.890625 -3.234375 C 2.898438 -2.722656 3.035156 -2.351562 3.296875 -2.125 C 3.554688 -1.894531 3.9375 -1.78125 4.4375 -1.78125 C 5.476562 -1.78125 6.40625 -1.8125 7.21875 -1.875 L 7.6875 -1.9375 L 7.71875 -0.265625 C 6.4375 0.046875 5.273438 0.203125 4.234375 0.203125 C 2.960938 0.203125 2.039062 -0.128906 1.46875 -0.796875 C 0.90625 -1.472656 0.625 -2.566406 0.625 -4.078125 C 0.625 -7.085938 1.859375 -8.59375 4.328125 -8.59375 C 6.773438 -8.59375 8 -7.328125 8 -4.796875 L 7.828125 -3.234375 Z M 5.78125 -4.953125 C 5.78125 -5.628906 5.671875 -6.097656 5.453125 -6.359375 C 5.242188 -6.617188 4.875 -6.75 4.34375 -6.75 C 3.8125 -6.75 3.4375 -6.609375 3.21875 -6.328125 C 3 -6.054688 2.882812 -5.597656 2.875 -4.953125 Z M 5.78125 -4.953125 "/></g></g></g><g fill="#000000" fill-opacity="1"><g transform="translate(224.210206, 198.788471)"><g/></g></g><g fill="#000000" fill-opacity="1"><g transform="translate(227.905627, 198.788471)"><g><path d="M 0.28125 0 L 2.859375 -11.421875 L 7.25 -11.421875 L 9.828125 0 L 7.515625 0 L 7.046875 -2.0625 L 3.0625 -2.0625 L 2.609375 0 Z M 4.65625 -9.5 L 3.5 -4.078125 L 6.625 -4.078125 L 5.453125 -9.5 Z M 4.65625 -9.5 "/></g></g></g><g fill="#000000" fill-opacity="1"><g transform="translate(238.017655, 198.788471)"><g><path d="M 8.65625 1.046875 C 8.65625 2.003906 8.285156 2.710938 7.546875 3.171875 C 6.804688 3.628906 5.804688 3.859375 4.546875 3.859375 C 3.285156 3.859375 2.316406 3.691406 1.640625 3.359375 C 0.960938 3.023438 0.625 2.414062 0.625 1.53125 C 0.625 0.820312 1.023438 0.15625 1.828125 -0.46875 C 1.410156 -0.75 1.203125 -1.175781 1.203125 -1.75 C 1.203125 -1.96875 1.375 -2.335938 1.71875 -2.859375 L 1.859375 -3.09375 C 1.097656 -3.632812 0.71875 -4.441406 0.71875 -5.515625 C 0.71875 -6.585938 1.039062 -7.363281 1.6875 -7.84375 C 2.332031 -8.320312 3.1875 -8.5625 4.25 -8.5625 C 4.726562 -8.5625 5.203125 -8.503906 5.671875 -8.390625 L 5.953125 -8.34375 L 8.65625 -8.4375 L 8.65625 -6.640625 L 7.390625 -6.734375 C 7.640625 -6.359375 7.765625 -5.976562 7.765625 -5.59375 C 7.765625 -4.46875 7.476562 -3.691406 6.90625 -3.265625 C 6.332031 -2.847656 5.4375 -2.640625 4.21875 -2.640625 C 3.957031 -2.640625 3.726562 -2.660156 3.53125 -2.703125 C 3.414062 -2.410156 3.359375 -2.171875 3.359375 -1.984375 C 3.359375 -1.804688 3.453125 -1.679688 3.640625 -1.609375 C 3.835938 -1.546875 4.285156 -1.507812 4.984375 -1.5 C 6.398438 -1.488281 7.363281 -1.300781 7.875 -0.9375 C 8.394531 -0.570312 8.65625 0.0859375 8.65625 1.046875 Z M 2.84375 1.296875 C 2.84375 1.773438 3.429688 2.015625 4.609375 2.015625 C 5.785156 2.015625 6.375 1.734375 6.375 1.171875 C 6.375 0.867188 6.273438 0.675781 6.078125 0.59375 C 5.878906 0.507812 5.453125 0.460938 4.796875 0.453125 L 3.296875 0.328125 C 2.992188 0.640625 2.84375 0.960938 2.84375 1.296875 Z M 2.96875 -5.578125 C 2.96875 -4.753906 3.394531 -4.34375 4.25 -4.34375 C 5.113281 -4.34375 5.546875 -4.753906 5.546875 -5.578125 C 5.546875 -6.398438 5.113281 -6.8125 4.25 -6.8125 C 3.394531 -6.8125 2.96875 -6.398438 2.96875 -5.578125 Z M 2.96875 -5.578125 "/></g></g></g><g fill="#000000" fill-opacity="1"><g transform="translate(246.987455, 198.788471)"><g><path d="M 2.890625 -3.234375 C 2.898438 -2.722656 3.035156 -2.351562 3.296875 -2.125 C 3.554688 -1.894531 3.9375 -1.78125 4.4375 -1.78125 C 5.476562 -1.78125 6.40625 -1.8125 7.21875 -1.875 L 7.6875 -1.9375 L 7.71875 -0.265625 C 6.4375 0.046875 5.273438 0.203125 4.234375 0.203125 C 2.960938 0.203125 2.039062 -0.128906 1.46875 -0.796875 C 0.90625 -1.472656 0.625 -2.566406 0.625 -4.078125 C 0.625 -7.085938 1.859375 -8.59375 4.328125 -8.59375 C 6.773438 -8.59375 8 -7.328125 8 -4.796875 L 7.828125 -3.234375 Z M 5.78125 -4.953125 C 5.78125 -5.628906 5.671875 -6.097656 5.453125 -6.359375 C 5.242188 -6.617188 4.875 -6.75 4.34375 -6.75 C 3.8125 -6.75 3.4375 -6.609375 3.21875 -6.328125 C 3 -6.054688 2.882812 -5.597656 2.875 -4.953125 Z M 5.78125 -4.953125 "/></g></g></g><g fill="#000000" fill-opacity="1"><g transform="translate(255.554128, 198.788471)"><g><path d="M 3.296875 0 L 1.046875 0 L 1.046875 -8.390625 L 3.28125 -8.390625 L 3.28125 -7.921875 C 4.039062 -8.367188 4.738281 -8.59375 5.375 -8.59375 C 6.488281 -8.59375 7.257812 -8.265625 7.6875 -7.609375 C 8.113281 -6.953125 8.328125 -5.929688 8.328125 -4.546875 L 8.328125 0 L 6.078125 0 L 6.078125 -4.484375 C 6.078125 -5.203125 5.992188 -5.726562 5.828125 -6.0625 C 5.660156 -6.40625 5.328125 -6.578125 4.828125 -6.578125 C 4.359375 -6.578125 3.914062 -6.5 3.5 -6.34375 L 3.296875 -6.28125 Z M 3.296875 0 "/></g></g></g><g fill="#000000" fill-opacity="1"><g transform="translate(264.843086, 198.788471)"><g><path d="M 4.1875 -8.59375 C 4.769531 -8.59375 5.515625 -8.503906 6.421875 -8.328125 L 6.875 -8.234375 L 6.796875 -6.453125 C 5.910156 -6.535156 5.257812 -6.578125 4.84375 -6.578125 C 4.0625 -6.578125 3.546875 -6.410156 3.296875 -6.078125 C 3.046875 -5.753906 2.921875 -5.132812 2.921875 -4.21875 C 2.921875 -3.300781 3.046875 -2.671875 3.296875 -2.328125 C 3.546875 -1.984375 4.066406 -1.8125 4.859375 -1.8125 L 6.796875 -1.953125 L 6.875 -0.15625 C 5.675781 0.0820312 4.757812 0.203125 4.125 0.203125 C 2.882812 0.203125 1.992188 -0.144531 1.453125 -0.84375 C 0.910156 -1.539062 0.640625 -2.660156 0.640625 -4.203125 C 0.640625 -5.753906 0.914062 -6.875 1.46875 -7.5625 C 2.03125 -8.25 2.9375 -8.59375 4.1875 -8.59375 Z M 4.1875 -8.59375 "/></g></g></g><g fill="#000000" fill-opacity="1"><g transform="translate(272.334727, 198.788471)"><g><path d="M 0.265625 -8.390625 L 2.484375 -8.390625 L 4.015625 -1.921875 L 4.40625 -1.921875 L 5.921875 -8.390625 L 8.140625 -8.390625 L 5.1875 3.53125 L 2.984375 3.53125 L 3.90625 0 L 2.328125 0 Z M 0.265625 -8.390625 "/></g></g></g><g fill="#000000" fill-opacity="1"><g transform="translate(280.731135, 198.788471)"><g/></g></g></svg>